<?xml version="1.0" encoding="utf-8"?>
<!-- Generator: Adobe Illustrator 16.0.0, SVG Export Plug-In . SVG Version: 6.00 Build 0)  -->
<!DOCTYPE svg PUBLIC "-//W3C//DTD SVG 1.1//EN" "http://www.w3.org/Graphics/SVG/1.1/DTD/svg11.dtd">
<svg version="1.1" id="Layer_1" xmlns="http://www.w3.org/2000/svg" xmlns:xlink="http://www.w3.org/1999/xlink" x="0px" y="0px"
	 width="1200px" height="1200px" viewBox="0 0 1200 1200" enable-background="new 0 0 1200 1200" xml:space="preserve">
<path fill="#FFFBFC" d="M407.578,931.406c0,4.688-5.391,8.438-12.188,8.438c-7.734,0.703-13.125-3.047-13.125-8.438
	c0-4.688,5.391-8.438,12.188-8.438C401.484,922.266,407.578,926.016,407.578,931.406z M334.688,920.859
	c-1.641,4.688,3.047,10.078,10.078,11.484c6.094,2.344,13.125,0,14.531-4.688s-3.047-10.078-10.078-12.188
	C343.125,913.828,336.328,916.172,334.688,920.859L334.688,920.859z M438.281,916.875c-6.797,1.641-11.484,6.094-10.781,11.484
	c0.703,4.688,6.797,7.734,13.828,6.094c6.797-1.641,11.484-6.094,10.781-10.781C451.406,919.219,445.078,916.172,438.281,916.875z
	 M592.5,18.75c-325.078,0-573.75,246.797-573.75,571.875c0,259.922,163.594,482.344,397.266,560.625
	c30,5.391,40.547-13.125,40.547-28.359c0-14.531-0.703-94.688-0.703-143.906c0,0-164.062,35.156-198.516-69.844
	c0,0-26.719-68.203-65.156-85.781c0,0-53.672-36.797,3.75-36.094c0,0,58.359,4.688,90.469,60.469
	c51.328,90.469,137.344,64.453,170.859,48.984c5.391-37.5,20.625-63.516,37.5-78.984C363.75,803.203,231.562,784.219,231.562,558.75
	c0-64.453,17.812-96.797,55.312-138.047c-6.094-15.234-26.016-78.047,6.094-159.141c48.984-15.234,161.719,63.281,161.719,63.281
	c46.875-13.125,97.266-19.922,147.188-19.922s100.312,6.797,147.188,19.922c0,0,112.734-78.75,161.719-63.281
	c32.109,81.328,12.188,143.906,6.094,159.141c37.5,41.484,60.469,73.828,60.469,138.047c0,226.172-138.047,244.219-269.062,258.984
	c21.562,18.516,39.844,53.672,39.844,108.75c0,78.984-0.703,176.719-0.703,195.938c0,15.234,10.781,33.75,40.547,28.359
	c234.375-77.812,393.281-300.234,393.281-560.156C1181.25,265.547,917.578,18.75,592.5,18.75z M246.562,827.109
	c-3.047,2.344-2.344,7.734,1.641,12.188c3.75,3.75,9.141,5.391,12.188,2.344c3.047-2.344,2.344-7.734-1.641-12.188
	C255,825.703,249.609,824.062,246.562,827.109z M221.25,808.125c-1.641,3.047,0.703,6.797,5.391,9.141
	c3.75,2.344,8.438,1.641,10.078-1.641c1.641-3.047-0.703-6.797-5.391-9.141C226.641,805.078,222.891,805.781,221.25,808.125z
	 M297.188,891.562c-3.75,3.047-2.344,10.078,3.047,14.531c5.391,5.391,12.188,6.094,15.234,2.344
	c3.047-3.047,1.641-10.078-3.047-14.531C307.266,888.516,300.234,887.812,297.188,891.562z M270.469,857.109
	c-3.75,2.344-3.75,8.438,0,13.828s10.078,7.734,13.125,5.391c3.75-3.047,3.75-9.141,0-14.531
	C280.312,856.406,274.219,854.062,270.469,857.109L270.469,857.109z"/>
</svg>
