<?xml version="1.0" encoding="utf-8"?>
<!-- Generator: Adobe Illustrator 16.0.0, SVG Export Plug-In . SVG Version: 6.00 Build 0)  -->
<!DOCTYPE svg PUBLIC "-//W3C//DTD SVG 1.1//EN" "http://www.w3.org/Graphics/SVG/1.1/DTD/svg11.dtd">
<svg version="1.1" id="Layer_1" xmlns="http://www.w3.org/2000/svg" xmlns:xlink="http://www.w3.org/1999/xlink" x="0px" y="0px"
	 width="1200px" height="1200px" viewBox="0 0 1200 1200" enable-background="new 0 0 1200 1200" xml:space="preserve">
<path fill="#FFFBFC" d="M600.234,330.469c-149.062,0-269.297,120.234-269.297,269.297s120.234,269.297,269.297,269.297
	s269.297-120.234,269.297-269.297S749.297,330.469,600.234,330.469z M600.234,774.844c-96.328,0-175.078-78.516-175.078-175.078
	s78.516-175.078,175.078-175.078s175.078,78.516,175.078,175.078S696.562,774.844,600.234,774.844z M943.359,319.453
	c0,34.922-28.125,62.812-62.812,62.812c-34.922,0-62.812-28.125-62.812-62.812s28.125-62.812,62.812-62.812
	S943.359,284.766,943.359,319.453z M1121.719,383.203c-3.984-84.141-23.203-158.672-84.844-220.078
	C975.469,101.719,900.938,82.5,816.797,78.281c-86.719-4.922-346.641-4.922-433.359,0C299.531,82.266,225,101.484,163.359,162.891
	S82.734,298.828,78.516,382.969c-4.922,86.719-4.922,346.641,0,433.359C82.5,900.469,101.719,975,163.359,1036.406
	s135.938,80.625,220.078,84.844c86.719,4.922,346.641,4.922,433.359,0c84.141-3.984,158.672-23.203,220.078-84.844
	c61.406-61.406,80.625-135.938,84.844-220.078C1126.641,729.609,1126.641,469.922,1121.719,383.203z M1009.688,909.375
	c-18.281,45.938-53.672,81.328-99.844,99.844c-69.141,27.422-233.203,21.094-309.609,21.094s-240.703,6.094-309.609-21.094
	c-45.938-18.281-81.328-53.672-99.844-99.844c-27.422-69.141-21.094-233.203-21.094-309.609s-6.094-240.703,21.094-309.609
	c18.281-45.938,53.672-81.328,99.844-99.844c69.141-27.422,233.203-21.094,309.609-21.094s240.703-6.094,309.609,21.094
	c45.938,18.281,81.328,53.672,99.844,99.844c27.422,69.141,21.094,233.203,21.094,309.609S1037.109,840.469,1009.688,909.375z"/>
</svg>
