<?xml version="1.0" encoding="utf-8"?>
<!-- Generator: Adobe Illustrator 16.0.0, SVG Export Plug-In . SVG Version: 6.00 Build 0)  -->
<!DOCTYPE svg PUBLIC "-//W3C//DTD SVG 1.1//EN" "http://www.w3.org/Graphics/SVG/1.1/DTD/svg11.dtd">
<svg version="1.1" id="Layer_1" xmlns="http://www.w3.org/2000/svg" xmlns:xlink="http://www.w3.org/1999/xlink" x="0px" y="0px"
	 width="1200px" height="1200px" viewBox="0 0 1200 1200" enable-background="new 0 0 1200 1200" xml:space="preserve">
<path fill="#FFFBFC" d="M1050,75H149.766C108.516,75,75,108.984,75,150.703v898.594c0,41.719,33.516,75.703,74.766,75.703H1050
	c41.25,0,75-33.984,75-75.703V150.703C1125,108.984,1091.25,75,1050,75z M392.344,975H236.719V473.906h155.859V975H392.344z
	 M314.531,405.469c-49.922,0-90.234-40.547-90.234-90.234S264.609,225,314.531,225c49.688,0,90.234,40.547,90.234,90.234
	C404.766,365.156,364.453,405.469,314.531,405.469z M975.703,975H820.078V731.25c0-58.125-1.172-132.891-80.859-132.891
	c-81.094,0-93.516,63.281-93.516,128.672V975H490.078V473.906h149.297v68.438h2.109c20.859-39.375,71.719-80.859,147.422-80.859
	c157.5,0,186.797,103.828,186.797,238.828V975z"/>
</svg>
